<svg height="512pt" viewBox="-12 0 512 512" width="512pt" xmlns="http://www.w3.org/2000/svg"><path d="m444.558594 269.894531c-6.964844-7.953125-6.964844-19.835937 0-27.789062l39.238281-44.800781c10.527344-12.019532 4.386719-30.925782-11.195313-34.460938l-58.078124-13.179688c-10.3125-2.34375-17.296876-11.957031-16.335938-22.484374l5.410156-59.308594c1.453125-15.914063-14.628906-27.597656-29.3125-21.296875l-54.734375 23.472656c-9.71875 4.167969-21.019531.496094-26.429687-8.589844l-30.484375-51.160156c-8.179688-13.726563-28.058594-13.726563-36.234375 0l-30.484375 51.160156c-5.410157 9.085938-16.710938 12.757813-26.429688 8.589844l-54.734375-23.472656c-14.683594-6.300781-30.765625 5.382812-29.3125 21.296875l5.410156 59.308594c.960938 10.527343-6.023437 20.140624-16.335937 22.484374l-58.078125 13.179688c-15.582031 3.535156-21.722656 22.441406-11.195312 34.460938l39.238281 44.800781c6.964843 7.953125 6.964843 19.835937 0 27.789062l-39.238281 44.800781c-10.527344 12.023438-4.386719 30.925782 11.195312 34.460938 20.375 4.625 37.78125 8.578125 58.078125 13.183594 10.3125 2.339844 17.296875 11.953125 16.335937 22.480468l-5.410156 59.308594c-1.453125 15.914063 14.628906 27.597656 29.3125 21.300782l54.734375-23.476563c9.71875-4.164063 21.019531-.492187 26.429688 8.589844l30.484375 51.160156c8.175781 13.726563 28.054687 13.726563 36.234375 0l30.484375-51.160156c5.410156-9.085938 16.710937-12.757813 26.429687-8.589844l54.734375 23.476563c14.683594 6.296874 30.765625-5.386719 29.3125-21.300782l-5.410156-59.308594c-.960938-10.527343 6.023438-20.140624 16.335938-22.480468l58.078124-13.183594c15.582032-3.535156 21.722657-22.441406 11.195313-34.460938zm0 0" fill="#f94530"/><g fill="#d93c2a"><path d="m242.152344 61.457031c5.414062 9.085938 16.714844 12.757813 26.429687 8.589844l23.621094-10.132813-29.566406-49.621093c-8.179688-13.722657-28.058594-13.722657-36.234375 0l-7.367188 12.363281zm0 0"/><path d="m444.558594 269.894531c-6.964844-7.953125-6.964844-19.835937 0-27.789062l39.238281-44.800781c10.527344-12.019532 4.386719-30.925782-11.195313-34.460938l-58.078124-13.179688c-10.3125-2.34375-17.296876-11.957031-16.335938-22.484374l5.410156-59.308594c1.453125-15.914063-14.628906-27.597656-29.3125-21.296875l-23.667968 10.148437c1.605468 3.289063 2.386718 7.078125 2.015624 11.148438l-5.410156 59.308594c-.960937 10.527343 6.023438 20.140624 16.332032 22.484374l58.078124 13.179688c15.585938 3.535156 21.726563 22.441406 11.199219 34.460938l-39.238281 44.800781c-6.964844 7.953125-6.964844 19.835937 0 27.789062l39.238281 44.800781c10.527344 12.023438 4.386719 30.925782-11.199219 34.464844l-58.078124 13.179688c-10.308594 2.339844-17.292969 11.953125-16.332032 22.484375l5.410156 59.304687c.371094 4.070313-.410156 7.863282-2.015624 11.148438l23.667968 10.152344c14.683594 6.296874 30.765625-5.386719 29.3125-21.300782l-5.410156-59.304687c-.960938-10.53125 6.023438-20.144531 16.335938-22.484375l58.078124-13.179688c15.582032-3.539062 21.722657-22.441406 11.195313-34.464844zm0 0"/><path d="m268.582031 441.957031c-9.714843-4.167969-21.015625-.496093-26.429687 8.585938l-23.117188 38.800781 7.367188 12.363281c8.175781 13.722657 28.054687 13.722657 36.234375 0l29.566406-49.621093zm0 0"/></g><path d="m273.5 109.257812c-100.609375-17.589843-178.539062 58.570313-178.539062 146.742188 0 82.597656 66.960937 149.558594 149.558593 149.558594 82.597657 0 149.558594-66.960938 149.558594-149.558594 0-72.679688-51.851563-133.246094-120.578125-146.742188zm0 0" fill="#ffb30f"/><path d="m227.996094 201.964844c0-20.6875-16.832032-37.519532-37.519532-37.519532s-37.519531 16.832032-37.519531 37.519532 16.832031 37.519531 37.519531 37.519531 37.519532-16.832031 37.519532-37.519531zm-59.511719 0c0-12.128906 9.863281-21.996094 21.992187-21.996094 12.128907 0 21.992188 9.867188 21.992188 21.996094s-9.863281 21.992187-21.992188 21.992187c-12.128906 0-21.992187-9.863281-21.992187-21.992187zm0 0" fill="#eeedee"/><path d="m261.046875 310.050781c0 20.6875 16.828125 37.519531 37.515625 37.519531s37.519531-16.832031 37.519531-37.519531-16.832031-37.519531-37.519531-37.519531-37.515625 16.832031-37.515625 37.519531zm59.511719 0c0 12.128907-9.867188 21.996094-21.996094 21.996094s-21.992188-9.867187-21.992188-21.996094c0-12.128906 9.863282-21.992187 21.992188-21.992187s21.996094 9.863281 21.996094 21.992187zm0 0" fill="#eeedee"/><path d="m309.445312 180.171875-132.480468 132.480469c-3.03125 3.035156-3.03125 7.949218 0 10.980468s7.949218 3.03125 10.976562 0l132.484375-132.480468c3.03125-3.03125 3.03125-7.945313 0-10.980469-3.03125-3.027344-7.945312-3.03125-10.980469 0zm0 0" fill="#eeedee"/></svg>