<?xml version="1.0" encoding="utf-8"?><svg viewBox="0 0 512 512" xmlns="http://www.w3.org/2000/svg" xmlns:xlink="http://www.w3.org/1999/xlink"><style>:root>svg{display:none}:root>svg:target{display:block}</style><svg viewBox="-12 0 512 512" id="discount" xmlns="http://www.w3.org/2000/svg"><path d="M444.559 269.895c-6.965-7.954-6.965-19.836 0-27.79l39.238-44.8c10.527-12.02 4.387-30.926-11.195-34.461l-58.079-13.18c-10.312-2.344-17.296-11.957-16.336-22.484l5.41-59.309c1.454-15.914-14.628-27.598-29.312-21.297l-54.734 23.473c-9.719 4.168-21.02.496-26.43-8.59l-30.484-51.16c-8.18-13.727-28.059-13.727-36.235 0l-30.484 51.16c-5.41 9.086-16.711 12.758-26.43 8.59l-54.734-23.473c-14.684-6.3-30.766 5.383-29.313 21.297l5.41 59.309c.961 10.527-6.023 20.14-16.335 22.484l-58.079 13.18c-15.582 3.535-21.722 22.441-11.195 34.46l39.238 44.801c6.965 7.954 6.965 19.836 0 27.79l-39.238 44.8C-5.285 326.72.855 345.621 16.437 349.156c20.375 4.625 37.782 8.578 58.079 13.184 10.312 2.34 17.296 11.953 16.336 22.48l-5.41 59.309c-1.454 15.914 14.628 27.598 29.312 21.3l54.734-23.476c9.719-4.164 21.02-.492 26.43 8.59l30.484 51.16c8.176 13.727 28.055 13.727 36.235 0l30.484-51.16c5.41-9.086 16.711-12.758 26.43-8.59l54.734 23.477c14.684 6.297 30.766-5.387 29.313-21.301l-5.41-59.309c-.961-10.527 6.023-20.14 16.335-22.48l58.079-13.184c15.582-3.535 21.722-22.441 11.195-34.46zm0 0" fill="#f94530"/><g fill="#d93c2a"><path d="M242.152 61.457c5.414 9.086 16.715 12.758 26.43 8.59l23.621-10.133-29.566-49.621c-8.18-13.723-28.059-13.723-36.235 0l-7.367 12.363zm0 0M444.559 269.895c-6.965-7.954-6.965-19.836 0-27.79l39.238-44.8c10.527-12.02 4.387-30.926-11.195-34.461l-58.079-13.18c-10.312-2.344-17.296-11.957-16.336-22.484l5.41-59.309c1.454-15.914-14.628-27.598-29.312-21.297l-23.668 10.149c1.606 3.289 2.387 7.078 2.016 11.148l-5.41 59.309c-.961 10.527 6.023 20.14 16.332 22.484l58.078 13.18c15.586 3.535 21.726 22.441 11.199 34.46l-39.238 44.801c-6.965 7.954-6.965 19.836 0 27.79l39.238 44.8c10.527 12.024 4.387 30.926-11.2 34.465l-58.077 13.18c-10.309 2.34-17.293 11.953-16.332 22.484l5.41 59.305c.37 4.07-.41 7.863-2.016 11.148l23.668 10.153c14.684 6.297 30.766-5.387 29.313-21.301l-5.41-59.305c-.961-10.531 6.023-20.144 16.335-22.484l58.079-13.18c15.582-3.539 21.722-22.441 11.195-34.465zm0 0M268.582 441.957c-9.715-4.168-21.016-.496-26.43 8.586l-23.117 38.8 7.367 12.364c8.176 13.723 28.055 13.723 36.235 0l29.566-49.621zm0 0"/></g><path d="M273.5 109.258C172.89 91.668 94.96 167.828 94.96 256c0 82.598 66.962 149.559 149.56 149.559 82.597 0 149.558-66.961 149.558-149.559 0-72.68-51.851-133.246-120.578-146.742zm0 0" fill="#ffb30f"/><path d="M227.996 201.965c0-20.688-16.832-37.52-37.52-37.52s-37.519 16.832-37.519 37.52 16.832 37.52 37.52 37.52 37.52-16.833 37.52-37.52zm-59.512 0c0-12.13 9.864-21.996 21.993-21.996 12.128 0 21.992 9.867 21.992 21.996s-9.864 21.992-21.992 21.992c-12.13 0-21.993-9.863-21.993-21.992zm0 0M261.047 310.05c0 20.688 16.828 37.52 37.515 37.52s37.52-16.832 37.52-37.52-16.832-37.519-37.52-37.519-37.515 16.832-37.515 37.52zm59.512 0c0 12.13-9.868 21.997-21.997 21.997s-21.992-9.867-21.992-21.996c0-12.13 9.864-21.992 21.993-21.992s21.996 9.863 21.996 21.992zm0 0M309.445 180.172l-132.48 132.48c-3.031 3.035-3.031 7.95 0 10.98s7.95 3.032 10.976 0l132.485-132.48a7.766 7.766 0 0 0 0-10.98 7.77 7.77 0 0 0-10.98 0zm0 0" fill="#eeedee"/></svg><svg viewBox="0 0 512 512" id="toys" xmlns="http://www.w3.org/2000/svg"><path d="M358.762 0H153.238C139.301 0 128 11.3 128 25.238v205.524C128 244.699 139.3 256 153.238 256h205.524C372.699 256 384 244.7 384 230.762V25.238C384 11.301 372.7 0 358.762 0zm0 0" fill="#f94530"/><path d="M358.762 0h-36.227c13.938 0 25.238 11.3 25.238 25.238v205.524c0 13.937-11.3 25.238-25.238 25.238h36.227C372.699 256 384 244.7 384 230.762V25.238C384 11.301 372.7 0 358.762 0zm0 0" fill="#d63b29"/><path d="M231.5 512h-207C10.969 512 0 501.031 0 487.5v-207C0 266.969 10.969 256 24.5 256h207c13.531 0 24.5 10.969 24.5 24.5v207c0 13.531-10.969 24.5-24.5 24.5zm0 0" fill="#68a1d7"/><path d="M230.762 256h-36.059c13.942 0 25.242 11.3 25.242 25.238v205.524c0 13.937-11.3 25.238-25.242 25.238h36.059C244.699 512 256 500.7 256 486.762V281.238C256 267.301 244.7 256 230.762 256zm0 0" fill="#5d8fbf"/><path d="M212.355 475.773H43.645a7.417 7.417 0 0 1-7.418-7.418v-168.71a7.417 7.417 0 0 1 7.418-7.418h168.71a7.417 7.417 0 0 1 7.418 7.418v168.71a7.417 7.417 0 0 1-7.418 7.418zm0 0" fill="#f7e29c"/><path d="M212.133 292.227h-36.227a7.643 7.643 0 0 1 7.645 7.64v168.266a7.643 7.643 0 0 1-7.645 7.64h36.227a7.642 7.642 0 0 0 7.64-7.64V299.867a7.642 7.642 0 0 0-7.64-7.64zm0 0" fill="#dbc98b"/><path d="M486.762 256H281.238C267.301 256 256 267.3 256 281.238v205.524C256 500.699 267.3 512 281.238 512h205.524C500.699 512 512 500.7 512 486.762V281.238C512 267.301 500.7 256 486.762 256zm0 0" fill="#ffb30f"/><path d="M486.762 256h-36.227c13.938 0 25.238 11.3 25.238 25.238v205.524c0 13.937-11.3 25.238-25.238 25.238h36.227C500.699 512 512 500.7 512 486.762V281.238C512 267.301 500.7 256 486.762 256zm0 0" fill="#d6960d"/><path d="M468.133 292.227H299.867a7.642 7.642 0 0 0-7.64 7.64v168.266a7.642 7.642 0 0 0 7.64 7.64h168.266a7.642 7.642 0 0 0 7.64-7.64V299.867a7.642 7.642 0 0 0-7.64-7.64zm0 0" fill="#f7e29c"/><path d="M468.133 292.227h-36.227a7.643 7.643 0 0 1 7.645 7.64v168.266a7.643 7.643 0 0 1-7.645 7.64h36.227a7.642 7.642 0 0 0 7.64-7.64V299.867a7.642 7.642 0 0 0-7.64-7.64zm0 0" fill="#dbc98b"/><path d="M340.355 219.773h-168.71a7.417 7.417 0 0 1-7.418-7.418V43.645a7.417 7.417 0 0 1 7.418-7.418h168.71a7.417 7.417 0 0 1 7.418 7.418v168.71a7.417 7.417 0 0 1-7.418 7.418zm0 0" fill="#f7e29c"/><path d="M340.133 36.227h-36.227a7.643 7.643 0 0 1 7.645 7.64v168.266a7.643 7.643 0 0 1-7.645 7.64h36.227a7.642 7.642 0 0 0 7.64-7.64V43.867a7.642 7.642 0 0 0-7.64-7.64zm0 0" fill="#dbc98b"/><path d="M112.309 444.027h31.382c10.028 0 18.188-8.16 18.188-18.187v-24.38c0-7.827-5.578-14.608-13.262-16.12l-6.793-1.34 6.793-1.34c7.684-1.512 13.262-8.293 13.262-16.12v-24.38c0-10.027-8.16-18.187-18.188-18.187h-31.379c-10.03 0-18.187 8.16-18.187 18.187v83.68c-.004 10.027 8.156 18.187 18.184 18.187zm34.117-18.187a2.737 2.737 0 0 1-2.735 2.734h-31.379a2.737 2.737 0 0 1-2.734-2.734v-32.445l36.055 7.105c1.515.297.469.969.793 25.34zm-36.852-83.68a2.737 2.737 0 0 1 2.735-2.734h31.379a2.737 2.737 0 0 1 2.734 2.734c-.32 24.27.723 25.043-.79 25.34l-36.058 7.105zm0 0" fill="#68a1d7"/><path d="M381.2 343.281h30.94a7.724 7.724 0 0 0 7.727-7.726 7.726 7.726 0 0 0-7.726-7.727h-30.942c-18.23 0-33.066 14.836-33.066 33.07v46.204c0 18.234 14.836 33.07 33.066 33.07h30.942c4.27 0 7.726-3.461 7.726-7.727a7.726 7.726 0 0 0-7.726-7.726h-30.942c-9.71 0-17.613-7.903-17.613-17.617v-46.204c0-9.714 7.902-17.617 17.613-17.617zm0 0" fill="#f2b134"/><path d="M260.043 62.324c-22.008 0-39.91 17.906-39.91 39.91v77.188a7.724 7.724 0 0 0 7.726 7.726 7.726 7.726 0 0 0 7.727-7.726v-40.863h48.91v40.863c0 4.27 3.461 7.726 7.727 7.726a7.724 7.724 0 0 0 7.726-7.726v-77.188c.004-22.004-17.902-39.91-39.906-39.91zm-24.457 60.781v-20.867c0-13.488 10.973-24.46 24.457-24.46S284.5 88.75 284.5 102.237v20.867zm0 0" fill="#f94530"/></svg></svg>