<svg height="511pt" viewBox="0 0 511 511.998" width="511pt" xmlns="http://www.w3.org/2000/svg"><path d="m447.023438 86.679688 30.671874-30.675782-89.054687-17.925781c-40.800781-24.914063-86.460937-38.078125-132.238281-38.078125-62.277344 0-122.382813 23.574219-169.226563 65.476562l-30.671875-30.675781-17.929687 89.058594c-24.914063 40.800781-38.074219 86.460937-38.074219 132.238281 0 62.273438 23.574219 122.378906 65.472656 169.222656l-30.671875 30.671876 89.058594 17.929687c40.800781 24.914063 86.460937 38.074219 132.238281 38.074219 62.273438 0 122.378906-23.574219 169.222656-65.472656l30.734376 30.734374 17.300781-87.089843.449219-.449219.359374-1.84375c24.738282-40.597656 37.8125-86.09375 37.8125-131.765625 0-63.566406-24.410156-123.523437-65.453124-169.429687zm-372.164063 8.882812 12.023437 12.023438 10.601563-10.601563c43.207031-43.207031 99.644531-67 158.917969-67 23.304687 0 46.609375 3.902344 69.109375 11.464844l6.96875 34.839843c-24.363281-10.613281-50.164063-16.136718-76.003907-16.136718-49.839843 0-99.703124 19.945312-137.789062 58.035156l-10.601562 10.597656 11.992187 11.996094-56.535156 11.308594c14.34375-71.648438 10.71875-53.550782 11.316406-56.527344zm21.199219 342.078125 12.027344-12.023437-10.601563-10.601563c-43.207031-43.207031-67-99.644531-67-158.917969 0-23.304687 3.902344-46.609375 11.460937-69.109375l34.84375-6.96875c-10.613281 24.363281-16.136718 50.164063-16.136718 76.003907 0 49.839843 19.945312 99.703124 58.03125 137.789062l10.601562 10.601562 11.996094-11.992187 11.304688 56.535156c-71.648438-14.34375-53.546876-10.71875-56.527344-11.316406zm63.636718-106.039063-29.960937 29.960938c-25.3125-30.035156-39.097656-66.992188-39.097656-105.542969 0-28.664062 8.144531-57.402343 23.609375-83.492187l66.652344-13.328125-29.960938-29.960938c30.03125-25.316406 66.988281-39.101562 105.539062-39.101562 28.664063 0 57.402344 8.148437 83.492188 23.609375l13.332031 66.652344 29.960938-29.960938c25.316406 30.035156 39.097656 66.992188 39.097656 105.542969 0 28.664062-8.144531 57.402343-23.605469 83.492187l-66.65625 13.328125 29.960938 29.960938c-26.121094 22.019531-57.480469 35.308593-90.566406 38.398437v-37.023437c22.753906-15.203125 89.949218-65.414063 89.949218-128.136719 0-73.820312-93.1875-131.335938-97.152344-133.746094l-7.789062-4.734375-7.789062 4.734375c-3.96875 2.410156-97.15625 59.925782-97.15625 133.746094 0 62.722656 67.195312 112.933594 89.953124 128.136719v36.957031c-23.613281-2.328125-46.949218-10.078125-68.480468-22.839844zm81.8125-39.40625v54.847657c-27.652343-21.78125-59.96875-55.84375-59.96875-91.042969 0-46.382812 54.347657-88.605469 74.960938-102.945312 20.617188 14.347656 74.957031 56.5625 74.957031 102.945312 0 37.460938-35.5 71.804688-59.964843 91.03125v-54.835938l40.582031-40.585937-21.199219-21.203125-19.386719 19.382812v-53.757812h-29.984375v53.757812l-19.382812-19.382812-21.203125 21.203125zm196.570313 124.183594-11.964844-11.964844c-5.335937 3.757813-62.859375 77.601563-169.515625 77.601563-23.304687 0-46.613281-3.90625-69.113281-11.464844l-6.964844-34.839843c24.359375 10.613281 50.164063 16.136718 76 16.136718 88.929688 0 137.648438-59.390625 148.394531-68.636718l-11.996093-11.992188 56.628906-11.328125c-12.332031 60.746094-11.421875 56.261719-11.46875 56.488281zm33.035156-91.378906-34.902343 6.980469c10.609374-24.363281 16.136718-50.164063 16.136718-76.003907 0-90.78125-62.71875-141.515624-68.636718-148.390624l-11.992188 11.992187-11.308594-56.535156 56.53125 11.316406-12.027344 12.023437c3.757813 5.34375 77.578126 62.804688 77.578126 169.730469 0 23.246094-3.875 46.480469-11.378907 68.886719zm0 0"/></svg>