<svg height="512pt" viewBox="0 -31 512 512" width="512pt" xmlns="http://www.w3.org/2000/svg"><path d="m503.542969 305.898438c-13.617188-19.167969-35.035157-30.582032-58.261719-31.5-15.574219-49.773438-59.199219-87.671876-113.730469-93.796876v-30.804687h14.980469c74.335938 0 134.816406-60.480469 134.816406-134.816406v-14.980469h-44.941406c-53.832031 0-100.390625 31.722656-121.984375 77.453125-18.75-28.578125-51.070313-47.492187-87.730469-47.492187h-44.9375v14.976562c0 57.820312 47.039063 104.859375 104.855469 104.859375h14.980469v30.820313c-38.03125 4.296874-72.808594 24.757812-95.039063 56.058593-33.265625-8.105469-69.558593-.292969-96.066406 23.03125l-11.277344 9.925781h-99.207031v149.796876h103.871094l231.777344 30.632812 176.351562-132.265625zm-67.136719-275.949219h13.914062c-7.289062 50.75-51.058593 89.886719-103.789062 89.886719h-13.914062c7.289062-50.746094 51.058593-89.886719 103.789062-89.886719zm-149.796875 89.886719c-36.167969 0-66.429687-25.773438-73.390625-59.917969h13.472656c36.171875 0 66.433594 25.773437 73.394532 59.917969zm-196.730469 269.636718h-59.917968v-89.878906h59.917968zm226.691406-179.757812c44.597657 0 84.140626 28.589844 98.804688 69.683594-4.898438 1.902343-9.628906 4.3125-14.101562 7.257812l-47.332032 30.734375c4.839844-9.90625 7.566406-21.027344 7.566406-32.777344v-14.980469h-93.550781c-3.648437 0-7.160156-1.324218-9.898437-3.734374l-7.035156-6.191407c-4.882813-4.296875-10.148438-8.097656-15.710938-11.382812 19.753906-24.128907 49.628906-38.609375 81.257812-38.609375zm10.882813 209.042968-207.617187-27.4375v-99.933593l10.441406-9.1875c28.304687-24.910157 72.648437-24.910157 100.957031 0l7.035156 6.191406c8.207031 7.222656 18.75 11.203125 29.6875 11.203125h61.027344c-6.183594 17.4375-22.84375 29.957031-42.375 29.957031h-74.898437v29.960938h132.371093l73.589844-47.78125c16.09375-10.601563 36.351563-9.652344 51.097656 1.042969zm0 0"/></svg>